<svg version="1.1" id="Calque_1" xmlns="http://www.w3.org/2000/svg" x="0" y="0" viewBox="0 0 800 1238" style="enable-background:new 0 0 800 1238" xml:space="preserve"><style>.st0{fill:#fff}</style><path d="M470.6 0h21.2c16.8 2.4 34.1 2.7 50.7 6.2C685.3 32.8 793.7 159.7 800 304.5v21.2c-10.5 70.2-109.8 70.1-118.6-.6-.9-10.2-.8-20.5-2.1-30.6C662 135.1 455.8 55.6 346.4 179.2c-58.3 66.1-53.3 173.1 7.9 235.5 13.1 13.8 27.2 26.5 41 39.7 99.8 96.7 201.7 191.3 300.6 288.9 171.9 186.4 53 484.1-202.5 495h-24.9c-83.3-4.9-160.3-37.5-217.5-98.7-58.5-61.6-88.1-135.2-88.5-220.3-.2-39.2 36.7-67.4 74.6-57.5 26.7 7 44.2 30.5 44.3 59.5-.4 116 107 212.3 223.8 196.3 92.2-9 161.9-96 150.8-188-5.2-62.5-37.5-99-81.9-139-25.3-24.3-50.7-48.6-76-72.9-76.9-74.5-156-147-231.7-222.7C94.1 307.7 214.3 9.8 470.6 0z"/><path class="st0" d="M470.6 0C214.4 9.7 94 307.8 266.4 495c75.7 75.7 154.8 148.2 231.6 222.9 25.4 24.3 50.7 48.5 76 72.9 44.4 40 76.8 76.6 81.9 139 11 91.9-58.6 178.9-150.8 188-116.8 16-224.2-80.3-223.8-196.3-.1-29-17.6-52.5-44.3-59.5-38-10-74.8 18.3-74.6 57.5.4 85.1 30 158.7 88.5 220.3 57.2 61.3 134.3 93.9 217.5 98.7H0V922.3c3.2 171.7 145 313 317.2 313.5-.7-1.3-1.5-1.8-2.3-2.3-33.8-18.1-64-40.9-90.5-68.7-40.2-42.2-68.5-91.1-84.7-147.1-3-10.4-4.6-21.3-8.1-31.4-8.2-23.5-12.4-47.5-12.4-72.4 1.3-205-2.4-410.2 1.5-615.1 4.2-37.3 18.2-70.5 41.1-100.1 1.2-1.6 2.2-3.5 2.8-5.4 25-81.6 80.8-149.3 155.9-189.7-.1-.5-.3-.9-.4-1.4-14.4 1.2-28.9 2-43.3 3.7C122.5 24.3 2.3 161.5 0 316.2V0h470.6zm-31.3 1076.6c49.1 15 107 2.7 143-34.8 47.6-47.5 49.6-127.7 9.5-180.5-1.6-2.1-3.3-3.4-6-3.4-4.7 0-9.5-.3-14.2 0-25.9 2-49.3 25-51.8 50.7-1 10.5-1 21.2-2.2 31.7-6 54.3-34.9 103.3-78.3 136.3z"/><path class="st0" d="M493.3 1238.4c255.5-11 374.3-308.5 202.5-495-98.8-97.6-200.7-192.3-300.5-288.9-13.7-13.2-27.9-25.9-41-39.7-61.2-62.5-66.2-169.4-7.9-235.5C455.8 55.6 661.9 135 679.3 294.5c1.3 10.1 1.2 20.4 2.1 30.6 8.9 70.9 108.3 70.5 118.6.6v912.7H493.3zM439 161.8c51.3 40.3 79.1 94 79.9 159.4.5 31.9 24.1 57.6 55.9 59.8 33.8 2.3 63.4-25 63-59.1-.2-16-1.9-32.1-3.6-48-.8-7.8-2-15.9-5.1-23.1-30.9-71-115.4-111.2-190.1-89z"/><path d="M0 316.2C2.3 161.5 122.5 24.3 276.8 5.9c14.4-1.7 28.8-2.5 43.3-3.7.1.5.3.9.4 1.4-75 40.3-130.9 108.1-155.9 189.6-.6 1.9-1.6 3.8-2.8 5.4-22.9 29.6-36.9 62.9-41.1 100.1-3.9 204.9-.2 410.1-1.5 615.1 0 24.9 4.2 48.9 12.4 72.4 3.5 10.2 5.1 21.1 8.1 31.4 16.2 56 44.5 104.9 84.7 147.1 26.5 27.8 56.7 50.6 90.5 68.7.8.4 1.6 1 2.3 2.3C145 1235.2 3.2 1093.9 0 922.2v-606z" style="fill:#be1522"/><path class="st0" d="M800 304.5C793.7 159.7 685.3 32.8 542.5 6.2c-16.6-3.5-33.8-3.8-50.7-6.2H800v304.5z"/><path d="M439.3 1076.6c43.4-33 72.3-82 78.3-136.2 1.2-10.5 1.2-21.2 2.2-31.7 2.5-25.7 25.9-48.7 51.8-50.7 4.7-.4 9.5 0 14.2 0 2.7 0 4.5 1.2 6 3.4 40.1 52.8 38.1 132.9-9.5 180.5-36 37.3-93.9 49.6-143 34.7z" style="fill:#662483"/><path d="M439 161.8c74.7-22.2 159.1 18 190.1 89.1 3 7.1 4.2 15.3 5.1 23.1 1.7 16 3.4 32 3.6 48 .4 34.1-29.2 61.5-63 59.1-31.8-2.2-55.4-27.9-55.9-59.8-.7-65.5-28.5-119.2-79.9-159.5z" style="fill:#60173e"/></svg>